<svg width="512" height="512" viewBox="0 0 512 512" fill="none" xmlns="http://www.w3.org/2000/svg">
  <defs>
    <linearGradient id="flux-gradient" x1="0%" y1="0%" x2="100%" y2="100%">
      <stop offset="0%" style="stop-color:#6366f1;stop-opacity:1" />
      <stop offset="100%" style="stop-color:#a855f7;stop-opacity:1" />
    </linearGradient>
    <filter id="shadow" x="-20%" y="-20%" width="140%" height="140%">
      <feGaussianBlur in="SourceAlpha" stdDeviation="15" />
      <feOffset dx="0" dy="10" />
      <feComponentTransfer>
        <feFuncA type="linear" slope="0.3" />
      </feComponentTransfer>
      <feMerge>
        <feMergeNode />
        <feMergeNode in="SourceGraphic" />
      </feMerge>
    </filter>
  </defs>
  <rect width="512" height="512" rx="112" fill="#0c0e14" />
  <g filter="url(#shadow)">
    <path d="M160 140 H352 V200 H220 V260 H320 V320 H220 V420 H160 V140 Z" fill="url(#flux-gradient)" />
    <path d="M160 140 H352 V180 C352 180 280 170 220 180 V240 C220 240 280 230 320 240 V280 C320 280 220 270 220 280 V420 H160 V140 Z" fill="url(#flux-gradient)" opacity="0.8" />
  </g>
  <path d="M220 200 L352 200 L352 220 L220 220 Z" fill="white" opacity="0.1" />
  <path d="M220 320 L320 320 L320 340 L220 340 Z" fill="white" opacity="0.1" />
</svg>
